<?xml version="1.0" encoding="UTF-8" standalone="no"?>
<!-- Created with Inkscape (http://www.inkscape.org/) -->

<svg
   xmlns:svg="http://www.w3.org/2000/svg"
   xmlns="http://www.w3.org/2000/svg"
   version="1.1"
   width="616.06482"
   height="399.46942"
   id="svg2"
   xml:space="preserve"><defs
     id="defs6"><clipPath
       id="clipPath20"><path
         d="m 36,756 540,0 0,-720 -540,0 0,720 z"
         id="path22" /></clipPath><clipPath
       id="clipPath56"><path
         d="m 50.5,662.398 36,0 0,-12 -36,0 0,12 z"
         id="path58" /></clipPath><clipPath
       id="clipPath64"><path
         d="M 0,0 37,0 37,13 0,13 0,0 z"
         id="path66" /></clipPath><clipPath
       id="clipPath68"><path
         d="m 0.5,12.398 36,0 0,-12 -36,0 0,12 z"
         id="path70" /></clipPath><clipPath
       id="clipPath168"><path
         d="m 36,756 540,0 0,-720 -540,0 0,720 z"
         id="path170" /></clipPath></defs><g
     transform="matrix(1.25,0,0,-1.25,-47.988209,866.38172)"
     id="g12"><g
       id="g14" /><g
       id="g16"><g
         clip-path="url(#clipPath20)"
         id="g18"><path
           d="m 42.5,688.5 484,0 0,-309 -484,0 0,309 z"
           id="path28"
           style="fill:none;stroke:#000000;stroke-width:1;stroke-linecap:butt;stroke-linejoin:miter;stroke-miterlimit:10;stroke-opacity:1;stroke-dasharray:none" /><path
           d="m 526,671.5 -483,0"
           id="path30"
           style="fill:none;stroke:#000000;stroke-width:1;stroke-linecap:butt;stroke-linejoin:miter;stroke-miterlimit:10;stroke-opacity:1;stroke-dasharray:none" /><path
           d="m 199.5,663 0,-254"
           id="path32"
           style="fill:none;stroke:#000000;stroke-width:1;stroke-linecap:butt;stroke-linejoin:miter;stroke-miterlimit:10;stroke-opacity:1;stroke-dasharray:none" /><path
           d="m 256.5,658.5 256,0 0,-14 -256,0 0,14 z"
           id="path34"
           style="fill:none;stroke:#000000;stroke-width:1;stroke-linecap:butt;stroke-linejoin:miter;stroke-miterlimit:10;stroke-opacity:1;stroke-dasharray:none" /><path
           d="m 205.523,635.699 0.75,0 0,-19.5 -0.75,0 0,19.5 z"
           id="path36"
           style="fill:#000000;fill-opacity:1;fill-rule:nonzero;stroke:none" /><path
           d="m 260.438,634.949 0.75,0 0,-18.75 -0.75,0 0,18.75 z"
           id="path38"
           style="fill:#000000;fill-opacity:1;fill-rule:nonzero;stroke:none" /><path
           d="m 311.426,634.949 0.75,0 0,-18.75 -0.75,0 0,18.75 z"
           id="path40"
           style="fill:#000000;fill-opacity:1;fill-rule:nonzero;stroke:none" /><path
           d="m 424.148,634.949 0.75,0 0,-18.75 -0.75,0 0,18.75 z"
           id="path42"
           style="fill:#000000;fill-opacity:1;fill-rule:nonzero;stroke:none" /><path
           d="m 486.512,635.699 0.75,0 0,-18.75 -0.75,0 0,18.75 z"
           id="path44"
           style="fill:#000000;fill-opacity:1;fill-rule:nonzero;stroke:none" /><path
           d="m 206.273,635.699 280.238,0 0,-0.75 -280.238,0 0,0.75 z"
           id="path46"
           style="fill:#000000;fill-opacity:1;fill-rule:nonzero;stroke:none" /><path
           d="m 486.512,616.949 31.836,0 0,-0.75 -31.836,0 0,0.75 z"
           id="path48"
           style="fill:#000000;fill-opacity:1;fill-rule:nonzero;stroke:none" /><text
           transform="matrix(1,0,0,-1,47.8,675.4)"
           id="text50"><tspan
             x="0 9.6120005 16.704 24.396 32.112 39.804001 43.608002 52.787998 60.012001 67.739998 75.732002 83.412003 91.139999 96.875999 104.028 108.84 112.668 119.892 127.608"
             y="0"
             id="tspan52"
             style="font-size:12px;font-variant:normal;font-weight:normal;writing-mode:lr-tb;fill:#000000;fill-opacity:1;fill-rule:nonzero;stroke:none;font-family:DejaVu Serif;-inkscape-font-specification:DejaVuSerif">Debug Conﬁgurations</tspan></text>
<g
           clip-path="url(#clipPath56)"
           id="g54"><g
             transform="translate(50,650)"
             id="g60"><g
               id="g62" /><g
               id="g72"><g
                 clip-path="url(#clipPath64)"
                 id="g74"><g
                   id="g76" /><g
                   id="g78"><g
                     clip-path="url(#clipPath68)"
                     id="g80"><g
                       transform="matrix(1,0,0,-1,0,13)"
                       id="g82"><path
                         d="m 16.25,2.852 0,9 7.5,0 0,-6.75 -2.25,-2.25 -5.25,0 z"
                         id="path84"
                         style="fill:none;stroke:#000000;stroke-width:0.30000001;stroke-linecap:butt;stroke-linejoin:miter;stroke-miterlimit:4;stroke-opacity:1;stroke-dasharray:none" /></g><g
                       transform="matrix(1,0,0,-1,0,13)"
                       id="g86"><path
                         d="m 2.75,2.852 0,9 7.5,0 0,-6.75 -2.25,-2.25 -5.25,0 z"
                         id="path88"
                         style="fill:#ffffff;fill-opacity:1;fill-rule:nonzero;stroke:#000000;stroke-width:0.30000001;stroke-linecap:butt;stroke-linejoin:miter;stroke-miterlimit:4;stroke-opacity:1;stroke-dasharray:none" /></g><path
                       d="m 8,10.148 0,-2.25 2.25,0 -2.25,2.25 z"
                       id="path90"
                       style="fill:#575757;fill-opacity:1;fill-rule:nonzero;stroke:none" /><g
                       transform="matrix(1,0,0,-1,0,13)"
                       id="g92"><path
                         d="m 8.75,1.352 c 0,6 0,6 0,6"
                         id="path94"
                         style="fill:none;stroke:#6c6c6c;stroke-width:1.5;stroke-linecap:butt;stroke-linejoin:miter;stroke-miterlimit:4;stroke-opacity:1;stroke-dasharray:none" /></g><g
                       transform="matrix(1,0,0,-1,0,13)"
                       id="g96"><path
                         d="m 5.75,4.352 c 6,0 6,0 6,0"
                         id="path98"
                         style="fill:none;stroke:#6c6c6c;stroke-width:1.5;stroke-linecap:butt;stroke-linejoin:miter;stroke-miterlimit:4;stroke-opacity:1;stroke-dasharray:none" /></g><g
                       transform="matrix(1,0,0,-1,0,13)"
                       id="g100"><path
                         d="m 26.75,2.852 c 7.5,8.25 7.5,8.25 7.5,8.25"
                         id="path102"
                         style="fill:none;stroke:#6c6c6c;stroke-width:2.25;stroke-linecap:butt;stroke-linejoin:miter;stroke-miterlimit:4;stroke-opacity:1;stroke-dasharray:none" /></g><g
                       transform="matrix(1,0,0,-1,0,13)"
                       id="g104"><path
                         d="m 34.25,2.852 c -7.5,8.25 -7.5,8.25 -7.5,8.25"
                         id="path106"
                         style="fill:none;stroke:#6c6c6c;stroke-width:2.25;stroke-linecap:butt;stroke-linejoin:miter;stroke-miterlimit:4;stroke-opacity:1;stroke-dasharray:none" /></g><g
                       transform="matrix(1,0,0,-1,0,13)"
                       id="g108"><path
                         d="m 13.25,1.352 0,9 7.5,0 0,-6.75 -2.25,-2.25 -5.25,0 z"
                         id="path110"
                         style="fill:#ffffff;fill-opacity:1;fill-rule:nonzero;stroke:#000000;stroke-width:0.30000001;stroke-linecap:butt;stroke-linejoin:miter;stroke-miterlimit:4;stroke-opacity:1;stroke-dasharray:none" /></g><path
                       d="m 18.5,11.648 0,-2.25 2.25,0 -2.25,2.25 z"
                       id="path112"
                       style="fill:#ffffff;fill-opacity:1;fill-rule:nonzero;stroke:none" /><text
                       transform="matrix(1,0,0,-1,14,9.399994)"
                       id="text114"><tspan
                         x="0 0.67365003 1.34865 1.8549 2.5299001 3.7098"
                         y="0"
                         id="tspan116"
                         style="font-size:1.35000002px;font-variant:normal;font-weight:normal;writing-mode:lr-tb;fill:#ffffff;fill-opacity:1;fill-rule:nonzero;stroke:none;font-family:Times New Roman;-inkscape-font-specification:TimesNewRomanPSMT">chrome</tspan><tspan
                         x="0 0.67500001 1.34865 2.0236499 2.6973 3.0334499 3.7084501 4.38345 5.0584502"
                         y="1.6875"
                         id="tspan118"
                         style="font-size:1.35000002px;font-variant:normal;font-weight:normal;writing-mode:lr-tb;fill:#ffffff;fill-opacity:1;fill-rule:nonzero;stroke:none;font-family:Times New Roman;-inkscape-font-specification:TimesNewRomanPSMT">developer</tspan><tspan
                         x="0 0.33614999 1.01115 1.68615 2.0223 2.5285499 2.86605 3.3722999 4.0472999"
                         y="3.375"
                         id="tspan120"
                         style="font-size:1.35000002px;font-variant:normal;font-weight:normal;writing-mode:lr-tb;fill:#ffffff;fill-opacity:1;fill-rule:nonzero;stroke:none;font-family:Times New Roman;-inkscape-font-specification:TimesNewRomanPSMT">tools for</tspan><tspan
                         x="0 0.50489998 1.17855 1.85355 2.5272 2.8647001 3.2021999 3.87585 4.5508499 5.2258501 5.8994999"
                         y="5.0625"
                         id="tspan122"
                         style="font-size:1.35000002px;font-variant:normal;font-weight:normal;writing-mode:lr-tb;fill:#ffffff;fill-opacity:1;fill-rule:nonzero;stroke:none;font-family:Times New Roman;-inkscape-font-specification:TimesNewRomanPSMT">java launch</tspan></text>
<path
                       d="m 18.5,11.648 0,-2.25 2.25,0 -2.25,2.25 z"
                       id="path124"
                       style="fill:#575757;fill-opacity:1;fill-rule:nonzero;stroke:none" /><text
                       transform="matrix(1,0,0,-1,14,9.399994)"
                       id="text126"><tspan
                         x="0 0.67365003 1.34865 1.8549 2.5299001 3.7098"
                         y="0"
                         id="tspan128"
                         style="font-size:1.35000002px;font-variant:normal;font-weight:normal;writing-mode:lr-tb;fill:#000000;fill-opacity:1;fill-rule:nonzero;stroke:none;font-family:Times New Roman;-inkscape-font-specification:TimesNewRomanPSMT">chrome</tspan><tspan
                         x="0 0.67500001 1.34865 2.0236499 2.6973 3.0334499 3.7084501 4.38345 5.0584502"
                         y="1.6875"
                         id="tspan130"
                         style="font-size:1.35000002px;font-variant:normal;font-weight:normal;writing-mode:lr-tb;fill:#000000;fill-opacity:1;fill-rule:nonzero;stroke:none;font-family:Times New Roman;-inkscape-font-specification:TimesNewRomanPSMT">developer</tspan><tspan
                         x="0 0.33614999 1.01115 1.68615 2.0223 2.5285499 2.86605 3.3722999 4.0472999"
                         y="3.375"
                         id="tspan132"
                         style="font-size:1.35000002px;font-variant:normal;font-weight:normal;writing-mode:lr-tb;fill:#000000;fill-opacity:1;fill-rule:nonzero;stroke:none;font-family:Times New Roman;-inkscape-font-specification:TimesNewRomanPSMT">tools for</tspan><tspan
                         x="0 0.50489998 1.17855 1.85355 2.5272 2.8647001 3.2021999 3.87585 4.5508499 5.2258501 5.8994999"
                         y="5.0625"
                         id="tspan134"
                         style="font-size:1.35000002px;font-variant:normal;font-weight:normal;writing-mode:lr-tb;fill:#000000;fill-opacity:1;fill-rule:nonzero;stroke:none;font-family:Times New Roman;-inkscape-font-specification:TimesNewRomanPSMT">java launch</tspan></text>
<g
                       transform="matrix(1,0,0,-1,0,13)"
                       id="g136"><path
                         d="m 16.25,2.852 0,9 7.5,0 0,-6.75 -2.25,-2.25 -5.25,0 z"
                         id="path138"
                         style="fill:#ffffff;fill-opacity:1;fill-rule:nonzero;stroke:#000000;stroke-width:0.30000001;stroke-linecap:butt;stroke-linejoin:miter;stroke-miterlimit:4;stroke-opacity:1;stroke-dasharray:none" /></g><path
                       d="m 21.5,10.148 0,-2.25 2.25,0 -2.25,2.25 z"
                       id="path140"
                       style="fill:#ffffff;fill-opacity:1;fill-rule:nonzero;stroke:none" /><text
                       transform="matrix(1,0,0,-1,17,7.899994)"
                       id="text142"><tspan
                         x="0 0.67365003 1.34865 1.8549 2.5299001 3.7098"
                         y="0"
                         id="tspan144"
                         style="font-size:1.35000002px;font-variant:normal;font-weight:normal;writing-mode:lr-tb;fill:#ffffff;fill-opacity:1;fill-rule:nonzero;stroke:none;font-family:Times New Roman;-inkscape-font-specification:TimesNewRomanPSMT">chrome</tspan><tspan
                         x="0 0.67500001 1.34865 2.0236499 2.6973 3.0334499 3.7084501 4.38345 5.0584502"
                         y="1.6875"
                         id="tspan146"
                         style="font-size:1.35000002px;font-variant:normal;font-weight:normal;writing-mode:lr-tb;fill:#ffffff;fill-opacity:1;fill-rule:nonzero;stroke:none;font-family:Times New Roman;-inkscape-font-specification:TimesNewRomanPSMT">developer</tspan><tspan
                         x="0 0.33614999 1.01115 1.68615 2.0223 2.5285499 2.86605 3.3722999 4.0472999"
                         y="3.375"
                         id="tspan148"
                         style="font-size:1.35000002px;font-variant:normal;font-weight:normal;writing-mode:lr-tb;fill:#ffffff;fill-opacity:1;fill-rule:nonzero;stroke:none;font-family:Times New Roman;-inkscape-font-specification:TimesNewRomanPSMT">tools for</tspan><tspan
                         x="0 0.50489998 1.17855 1.85355 2.5272 2.8647001 3.2021999 3.87585 4.5508499 5.2258501 5.8994999"
                         y="5.0625"
                         id="tspan150"
                         style="font-size:1.35000002px;font-variant:normal;font-weight:normal;writing-mode:lr-tb;fill:#ffffff;fill-opacity:1;fill-rule:nonzero;stroke:none;font-family:Times New Roman;-inkscape-font-specification:TimesNewRomanPSMT">java launch</tspan></text>
<path
                       d="m 21.5,10.148 0,-2.25 2.25,0 -2.25,2.25 z"
                       id="path152"
                       style="fill:#575757;fill-opacity:1;fill-rule:nonzero;stroke:none" /><text
                       transform="matrix(1,0,0,-1,17,7.899994)"
                       id="text154"><tspan
                         x="0 0.67365003 1.34865 1.8549 2.5299001 3.7098"
                         y="0"
                         id="tspan156"
                         style="font-size:1.35000002px;font-variant:normal;font-weight:normal;writing-mode:lr-tb;fill:#000000;fill-opacity:1;fill-rule:nonzero;stroke:none;font-family:Times New Roman;-inkscape-font-specification:TimesNewRomanPSMT">chrome</tspan><tspan
                         x="0 0.67500001 1.34865 2.0236499 2.6973 3.0334499 3.7084501 4.38345 5.0584502"
                         y="1.6875"
                         id="tspan158"
                         style="font-size:1.35000002px;font-variant:normal;font-weight:normal;writing-mode:lr-tb;fill:#000000;fill-opacity:1;fill-rule:nonzero;stroke:none;font-family:Times New Roman;-inkscape-font-specification:TimesNewRomanPSMT">developer</tspan><tspan
                         x="0 0.33614999 1.01115 1.68615 2.0223 2.5285499 2.86605 3.3722999 4.0472999"
                         y="3.375"
                         id="tspan160"
                         style="font-size:1.35000002px;font-variant:normal;font-weight:normal;writing-mode:lr-tb;fill:#000000;fill-opacity:1;fill-rule:nonzero;stroke:none;font-family:Times New Roman;-inkscape-font-specification:TimesNewRomanPSMT">tools for</tspan><tspan
                         x="0 0.50489998 1.17855 1.85355 2.5272 2.8647001 3.2021999 3.87585 4.5508499 5.2258501 5.8994999"
                         y="5.0625"
                         id="tspan162"
                         style="font-size:1.35000002px;font-variant:normal;font-weight:normal;writing-mode:lr-tb;fill:#000000;fill-opacity:1;fill-rule:nonzero;stroke:none;font-family:Times New Roman;-inkscape-font-specification:TimesNewRomanPSMT">java launch</tspan></text>
</g></g></g></g></g></g></g></g><g
       id="g164"><g
         clip-path="url(#clipPath168)"
         id="g166"><path
           d="m 52.898,644.699 0,0 c 1.325,0 2.403,-1.074 2.403,-2.398 0,-1.324 -1.078,-2.403 -2.403,-2.403 -1.324,0 -2.398,1.079 -2.398,2.403 0,1.324 1.074,2.398 2.398,2.398 z"
           id="path172"
           style="fill:#000000;fill-opacity:1;fill-rule:nonzero;stroke:none" /><text
           transform="matrix(1,0,0,-1,61.3,638.4)"
           id="text174"><tspan
             x="0 9.1800003 16.908001 22.643999 29.868 41.243999 45.071999 52.799999 64.164001 67.968002 72.767998 79.919998 86.688004 93.828003 102.06 108.78 114.516 118.344 126.036"
             y="0"
             id="tspan176"
             style="font-size:12px;font-variant:normal;font-weight:normal;writing-mode:lr-tb;fill:#000000;fill-opacity:1;fill-rule:nonzero;stroke:none;font-family:DejaVu Serif;-inkscape-font-specification:DejaVuSerif">Chromium JavaScript</tspan></text>
<path
           d="m 52.898,629.699 0,0 c 1.325,0 2.403,-1.074 2.403,-2.398 0,-1.324 -1.078,-2.403 -2.403,-2.403 -1.324,0 -2.398,1.079 -2.398,2.403 0,1.324 1.074,2.398 2.398,2.398 z"
           id="path178"
           style="fill:#000000;fill-opacity:1;fill-rule:nonzero;stroke:none" /><text
           transform="matrix(1,0,0,-1,61.3,623.4)"
           id="text180"><tspan
             x="0 8.2200003 13.044 20.184 27.912001 35.591999 42.743999 46.571999 53.796001 61.523998 68.615997 72.407997 81.071999 88.704002 92.508003 101.172"
             y="0"
             id="tspan182"
             style="font-size:12px;font-variant:normal;font-weight:normal;writing-mode:lr-tb;fill:#000000;fill-opacity:1;fill-rule:nonzero;stroke:none;font-family:DejaVu Serif;-inkscape-font-specification:DejaVuSerif">Standalone V8 VM</tspan><tspan
             x="13.2 19.968 27.6 31.403999 39.035999 46.667999 54.299999 61.944 65.736 76.008003 83.099998 90.779999 96.935997 104.028 109.764"
             y="15"
             id="tspan184"
             style="font-size:12px;font-variant:normal;font-weight:normal;writing-mode:lr-tb;fill:#000000;fill-opacity:1;fill-rule:nonzero;stroke:none;font-family:DejaVu Serif;-inkscape-font-specification:DejaVuSerif">v8 5858 webserv</tspan></text>
<path
           d="m 52.898,599.699 0,0 c 1.325,0 2.403,-1.074 2.403,-2.398 0,-1.324 -1.078,-2.403 -2.403,-2.403 -1.324,0 -2.398,1.079 -2.398,2.403 0,1.324 1.074,2.398 2.398,2.398 z"
           id="path186"
           style="fill:#000000;fill-opacity:1;fill-rule:nonzero;stroke:none" /><text
           transform="matrix(1,0,0,-1,61.3,593.4)"
           id="text188"><tspan
             x="0 11.34 18.431999 26.112 35.076 38.903999 43.716 47.52 55.584 61.32 68.543999 73.367996 80.592003 87.311996 94.536003"
             y="0"
             id="tspan190"
             style="font-size:12px;font-variant:normal;font-weight:normal;writing-mode:lr-tb;fill:#000000;fill-opacity:1;fill-rule:nonzero;stroke:none;font-family:DejaVu Serif;-inkscape-font-specification:DejaVuSerif">WebKit Protocol</tspan><tspan
             x="148.875 159.375 166.52699 177.903 184.995"
             y="-53.549999"
             id="tspan192"
             style="font-size:12px;font-variant:normal;font-weight:normal;writing-mode:lr-tb;fill:#000000;fill-opacity:1;fill-rule:nonzero;stroke:none;font-family:DejaVu Serif;-inkscape-font-specification:DejaVuSerif">Name:</tspan><tspan
             x="199.03749 205.8055 213.4375 217.2415 224.87349 232.50549 240.1375 247.78149 251.5735 261.84549 268.9375 276.61749 282.7735 289.86551 295.6015 302.36951"
             y="-52.424999"
             id="tspan194"
             style="font-size:12px;font-variant:normal;font-weight:normal;writing-mode:lr-tb;fill:#000000;fill-opacity:1;fill-rule:nonzero;stroke:none;font-family:DejaVu Serif;-inkscape-font-specification:DejaVuSerif">v8 5858 webserv </tspan><tspan
             x="148.72501 157.74899 164.841 176.217 183.44099 188.25301 203.589 211.821 219.045 226.761 232.509 239.229"
             y="-29.549999"
             id="tspan196"
             style="font-size:12px;font-variant:normal;font-weight:normal;writing-mode:lr-tb;fill:#000000;fill-opacity:1;fill-rule:nonzero;stroke:none;font-family:DejaVu Serif;-inkscape-font-specification:DejaVuSerif">RemoteSource</tspan></text>
<text
           transform="matrix(1,0,0,-1,315.865,622.95)"
           id="text198"><tspan
             x="0 8.6639996 15.96 22.284 26.832001 35.220001 40.740002 44.916 58.188 65.952003 74.339996 82.727997 87.276001 96"
             y="0"
             id="tspan200"
             style="font-size:12px;font-variant:normal;font-weight:bold;writing-mode:lr-tb;fill:#000000;fill-opacity:1;fill-rule:nonzero;stroke:none;font-family:DejaVu Serif Bold;-inkscape-font-specification:DejaVuSerif-Bold">Script Mapping</tspan></text>
<text
           transform="matrix(1,0,0,-1,428.497,622.95)"
           id="text202"><tspan
             x="0 9.1920004 16.416 27.792 39.155998 46.380001"
             y="0"
             id="tspan204"
             style="font-size:12px;font-variant:normal;font-weight:normal;writing-mode:lr-tb;fill:#000000;fill-opacity:1;fill-rule:nonzero;stroke:none;font-family:DejaVu Serif;-inkscape-font-specification:DejaVuSerif">Common</tspan><tspan
             x="-222.972 -214.752 -207.528 -199.8 -194.064 -187.332 -180.252 -176.448 -172.62 -165.396 -158.172 -151.116 -147.084 -139.356 -131.664 -127.86 -116.496 -109.404 -104.592 -96.863998 -89.639999"
             y="27.15"
             id="tspan206"
             style="font-size:12px;font-variant:normal;font-weight:normal;writing-mode:lr-tb;fill:#000000;fill-opacity:1;fill-rule:nonzero;stroke:none;font-family:DejaVu Serif;-inkscape-font-specification:DejaVuSerif">Source look-up method</tspan></text>
<text
           transform="matrix(1,0,0,-1,213.025,578.55)"
           id="text208"><tspan
             x="0"
             y="0"
             id="tspan210"
             style="font-size:12px;font-variant:normal;font-weight:normal;writing-mode:lr-tb;fill:#000000;fill-opacity:1;fill-rule:nonzero;stroke:none;font-family:Free Serif;-inkscape-font-specification:FreeSerif">⚪</tspan></text>
<text
           transform="matrix(1,0,0,-1,224.161,578.55)"
           id="text212"><tspan
             x="0 8.7480001 15.504 22.656 29.375999 34.188 37.992001 49.368 56.52 61.332001 68.052002"
             y="0"
             id="tspan214"
             style="font-size:12px;font-variant:normal;font-weight:normal;writing-mode:lr-tb;fill:#000000;fill-opacity:1;fill-rule:nonzero;stroke:none;font-family:DejaVu Serif;-inkscape-font-specification:DejaVuSerif">Exact match</tspan><tspan
             x="102.10149 110.4175 118.14549 121.9735 125.8015 129.59349 135.76149 142.48149 148.2175 152.0455 159.7375 164.5495 168.3535 176.06949 183.2215 194.59749 201.6895 207.84549 211.64949 218.78949 224.53749 231.61749 235.42149 243.14949 249.3055 256.39749 264.08951"
             y="0.50000042"
             id="tspan216"
             style="font-size:12px;font-variant:normal;font-weight:normal;writing-mode:lr-tb;fill:#000000;fill-opacity:1;fill-rule:nonzero;stroke:none;font-family:DejaVu Serif;-inkscape-font-specification:DejaVuSerif">Full script names are used.</tspan></text>
<text
           transform="matrix(1,0,0,-1,213.025,559.55)"
           id="text218"><tspan
             x="0"
             y="0"
             id="tspan220"
             style="font-size:12px;font-variant:normal;font-weight:normal;writing-mode:lr-tb;fill:#000000;fill-opacity:1;fill-rule:nonzero;stroke:none;font-family:Free Serif;-inkscape-font-specification:FreeSerif">⚫</tspan></text>
<text
           transform="matrix(1,0,0,-1,224.161,559.55)"
           id="text222"><tspan
             x="0 8.6639996 16.392 21.204 28.427999 32.472 40.152 47.243999 52.056 59.147999 65.867996"
             y="0"
             id="tspan224"
             style="font-size:12px;font-variant:normal;font-weight:normal;writing-mode:lr-tb;fill:#000000;fill-opacity:1;fill-rule:nonzero;stroke:none;font-family:DejaVu Serif;-inkscape-font-specification:DejaVuSerif">Auto-detect</tspan><tspan
             x="102.10149 111.9295 119.65749 123.4855 130.2415 134.0455 140.20149 147.92949 155.1535 160.8895 165.7135 169.50549 177.4975 181.3255 188.4175 192.2215 199.9375 207.08949 218.4655 225.5575 231.7135 235.5175 242.6575 248.4055 255.48549 259.28949 267.01749 273.17349 280.2655 287.95749"
             y="0.50000042"
             id="tspan226"
             style="font-size:12px;font-variant:normal;font-weight:normal;writing-mode:lr-tb;fill:#000000;fill-opacity:1;fill-rule:nonzero;stroke:none;font-family:DejaVu Serif;-inkscape-font-specification:DejaVuSerif">Only short ﬁle names are used.</tspan><tspan
             x="-18.636 -9.6120005 -2.52 4.1999998 11.424 19.115999 26.844 30.672001 36.984001 44.076 51.756001 55.560001 63.779999 71.003998 78.732002 84.468002 91.199997 98.279999 102.084 113.88 119.616 126.768 134.448 142.14 145.95599 153.68401"
             y="26.650003"
             id="tspan228"
             style="font-size:12px;font-variant:normal;font-weight:normal;writing-mode:lr-tb;fill:#000000;fill-opacity:1;fill-rule:nonzero;stroke:none;font-family:DejaVu Serif;-inkscape-font-specification:DejaVuSerif">Recognized Source Wrapping</tspan></text>
<text
           transform="matrix(1,0,0,-1,211.525,517.89999)"
           id="text230"><tspan
             x="0"
             y="0"
             id="tspan232"
             style="font-size:12px;font-variant:normal;font-weight:normal;writing-mode:lr-tb;fill:#000000;fill-opacity:1;fill-rule:nonzero;stroke:none;font-family:Free Serif;-inkscape-font-specification:FreeSerif">☑</tspan></text>
<text
           transform="matrix(1,0,0,-1,224.389,517.89999)"
           id="text234"><tspan
             x="0 10.5 17.724001 25.403999 32.495998 36.299999 41.099998"
             y="0"
             id="tspan236"
             style="font-size:12px;font-variant:normal;font-weight:normal;writing-mode:lr-tb;fill:#000000;fill-opacity:1;fill-rule:nonzero;stroke:none;font-family:DejaVu Serif;-inkscape-font-specification:DejaVuSerif">Node.JS</tspan></text>
<path
           d="m 413.5,427.5 41,0 0,-16 -41,0 0,16 z"
           id="path238"
           style="fill:none;stroke:#000000;stroke-width:1;stroke-linecap:butt;stroke-linejoin:miter;stroke-miterlimit:10;stroke-opacity:1;stroke-dasharray:none" /><text
           transform="matrix(1,0,0,-1,416.8125,415.4)"
           id="text240"><tspan
             x="0 8.6639996 16.344 24.024 27.851999"
             y="0"
             id="tspan242"
             style="font-size:12px;font-variant:normal;font-weight:normal;writing-mode:lr-tb;fill:#000000;fill-opacity:1;fill-rule:nonzero;stroke:none;font-family:DejaVu Serif;-inkscape-font-specification:DejaVuSerif">Apply</tspan></text>
<path
           d="m 465.5,427.5 48,0 0,-16 -48,0 0,16 z"
           id="path244"
           style="fill:none;stroke:#000000;stroke-width:1;stroke-linecap:butt;stroke-linejoin:miter;stroke-miterlimit:10;stroke-opacity:1;stroke-dasharray:none" /><text
           transform="matrix(1,0,0,-1,469.275,415.4)"
           id="text246"><tspan
             x="0 9.0240002 16.115999 22.884001 29.976 35.712002"
             y="0"
             id="tspan248"
             style="font-size:12px;font-variant:normal;font-weight:normal;writing-mode:lr-tb;fill:#000000;fill-opacity:1;fill-rule:nonzero;stroke:none;font-family:DejaVu Serif;-inkscape-font-specification:DejaVuSerif">Revert</tspan></text>
<path
           d="m 422.5,397.5 47,0 0,-16 -47,0 0,16 z"
           id="path250"
           style="fill:none;stroke:#000000;stroke-width:1;stroke-linecap:butt;stroke-linejoin:miter;stroke-miterlimit:10;stroke-opacity:1;stroke-dasharray:none" /><text
           transform="matrix(1,0,0,-1,426.2,385.2)"
           id="text252"><tspan
             x="0 9.6120005 16.704 24.384001 32.112"
             y="0"
             id="tspan254"
             style="font-size:12px;font-variant:normal;font-weight:normal;writing-mode:lr-tb;fill:#000000;fill-opacity:1;fill-rule:nonzero;stroke:none;font-family:DejaVu Serif;-inkscape-font-specification:DejaVuSerif">Debug</tspan></text>
<path
           d="m 480.5,397.5 40,0 0,-16 -40,0 0,16 z"
           id="path256"
           style="fill:none;stroke:#000000;stroke-width:1;stroke-linecap:butt;stroke-linejoin:miter;stroke-miterlimit:10;stroke-opacity:1;stroke-dasharray:none" /><text
           transform="matrix(1,0,0,-1,483.8375,385.2)"
           id="text258"><tspan
             x="0 9.1800003 13.008 20.232 26.388"
             y="0"
             id="tspan260"
             style="font-size:12px;font-variant:normal;font-weight:normal;writing-mode:lr-tb;fill:#000000;fill-opacity:1;fill-rule:nonzero;stroke:none;font-family:DejaVu Serif;-inkscape-font-specification:DejaVuSerif">Close</tspan></text>
</g></g></g></svg>