<?xml version="1.0" encoding="UTF-8" standalone="no"?>
<!-- Created with Inkscape (http://www.inkscape.org/) -->

<svg
   xmlns:svg="http://www.w3.org/2000/svg"
   xmlns="http://www.w3.org/2000/svg"
   version="1.1"
   width="203.99019"
   height="55.038864"
   id="svg2"
   xml:space="preserve"><defs
     id="defs6"><clipPath
       id="clipPath20"><path
         d="m 36,756 540,0 0,-720 -540,0 0,720 z"
         id="path22" /></clipPath><clipPath
       id="clipPath34"><path
         d="m 66,747.352 24,0 0,-24 -24,0 0,24 z"
         id="path36" /></clipPath><clipPath
       id="clipPath42"><path
         d="M 0,0 24,0 24,25 0,25 0,0 z"
         id="path44" /></clipPath><clipPath
       id="clipPath46"><path
         d="m 0,24.352 24,0 0,-24 -24,0 0,24 z"
         id="path48" /></clipPath><clipPath
       id="clipPath72"><path
         d="m 36,756 540,0 0,-720 -540,0 0,720 z"
         id="path74" /></clipPath><clipPath
       id="clipPath78"><path
         d="m 93.812,747.352 24,0 0,-24 -24,0 0,24 z"
         id="path80" /></clipPath><clipPath
       id="clipPath86"><path
         d="M 0,0 25,0 25,25 0,25 0,0 z"
         id="path88" /></clipPath><clipPath
       id="clipPath90"><path
         d="m 0.812,24.352 24,0 0,-24 -24,0 0,24 z"
         id="path92" /></clipPath><clipPath
       id="clipPath116"><path
         d="m 36,756 540,0 0,-720 -540,0 0,720 z"
         id="path118" /></clipPath><clipPath
       id="clipPath122"><path
         d="m 121.625,747.352 24,0 0,-24 -24,0 0,24 z"
         id="path124" /></clipPath><clipPath
       id="clipPath130"><path
         d="M 0,0 25,0 25,25 0,25 0,0 z"
         id="path132" /></clipPath><clipPath
       id="clipPath134"><path
         d="m 0.625,24.352 24,0 0,-24 -24,0 0,24 z"
         id="path136" /></clipPath><clipPath
       id="clipPath160"><path
         d="m 36,756 540,0 0,-720 -540,0 0,720 z"
         id="path162" /></clipPath><clipPath
       id="clipPath166"><path
         d="m 149.438,747.352 24,0 0,-24 -24,0 0,24 z"
         id="path168" /></clipPath><clipPath
       id="clipPath174"><path
         d="M 0,0 25,0 25,25 0,25 0,0 z"
         id="path176" /></clipPath><clipPath
       id="clipPath178"><path
         d="m 0.438,24.352 24,0 0,-24 -24,0 0,24 z"
         id="path180" /></clipPath></defs><g
     transform="matrix(1.25,0,0,-1.25,-46.871467,945.03533)"
     id="g12"><g
       id="g14" /><g
       id="g16"><g
         clip-path="url(#clipPath20)"
         id="g18"><path
           d="m 42,751.5 155,0"
           id="path28"
           style="fill:none;stroke:#000000;stroke-width:1;stroke-linecap:butt;stroke-linejoin:miter;stroke-miterlimit:10;stroke-opacity:1;stroke-dasharray:none" /><path
           d="m 197,716.5 -155,0"
           id="path30"
           style="fill:none;stroke:#000000;stroke-width:1;stroke-linecap:butt;stroke-linejoin:miter;stroke-miterlimit:10;stroke-opacity:1;stroke-dasharray:none" /><g
           clip-path="url(#clipPath34)"
           id="g32"><g
             transform="translate(66,723)"
             id="g38"><g
               id="g40" /><g
               id="g50"><g
                 clip-path="url(#clipPath42)"
                 id="g52"><g
                   id="g54" /><g
                   id="g56"><g
                     clip-path="url(#clipPath46)"
                     id="g58"><g
                       transform="matrix(1,0,0,-1,0,25)"
                       id="g60"><path
                         d="m 7.5,8.148 9,0 0,10.5"
                         id="path62"
                         style="fill:none;stroke:#000000;stroke-width:1.5;stroke-linecap:round;stroke-linejoin:round;stroke-miterlimit:4;stroke-opacity:1;stroke-dasharray:none" /></g><g
                       transform="matrix(1,0,0,-1,0,25)"
                       id="g64"><path
                         d="m 12,14.148 4.5,4.5 4.5,-4.5"
                         id="path66"
                         style="fill:none;stroke:#000000;stroke-width:1.95000005;stroke-linecap:round;stroke-linejoin:round;stroke-miterlimit:4;stroke-opacity:1;stroke-dasharray:none" /></g></g></g></g></g></g></g></g></g><g
       id="g68"><g
         clip-path="url(#clipPath72)"
         id="g70"><g
           clip-path="url(#clipPath78)"
           id="g76"><g
             transform="translate(93,723)"
             id="g82"><g
               id="g84" /><g
               id="g94"><g
                 clip-path="url(#clipPath86)"
                 id="g96"><g
                   id="g98" /><g
                   id="g100"><g
                     clip-path="url(#clipPath90)"
                     id="g102"><g
                       transform="matrix(1,0,0,-1,0,25)"
                       id="g104"><path
                         d="m 6.812,12.648 0,-4.5 12,0 0,10.5"
                         id="path106"
                         style="fill:none;stroke:#000000;stroke-width:1.5;stroke-linecap:round;stroke-linejoin:round;stroke-miterlimit:4;stroke-opacity:1;stroke-dasharray:none" /></g><g
                       transform="matrix(1,0,0,-1,0,25)"
                       id="g108"><path
                         d="m 14.312,14.148 4.5,4.5 4.5,-4.5"
                         id="path110"
                         style="fill:none;stroke:#000000;stroke-width:1.95000005;stroke-linecap:round;stroke-linejoin:round;stroke-miterlimit:4;stroke-opacity:1;stroke-dasharray:none" /></g></g></g></g></g></g></g></g></g><g
       id="g112"><g
         clip-path="url(#clipPath116)"
         id="g114"><g
           clip-path="url(#clipPath122)"
           id="g120"><g
             transform="translate(121,723)"
             id="g126"><g
               id="g128" /><g
               id="g138"><g
                 clip-path="url(#clipPath130)"
                 id="g140"><g
                   id="g142" /><g
                   id="g144"><g
                     clip-path="url(#clipPath134)"
                     id="g146"><g
                       transform="matrix(1,0,0,-1,0,25)"
                       id="g148"><path
                         d="m 9.625,18.648 0,-9 9,0"
                         id="path150"
                         style="fill:none;stroke:#000000;stroke-width:1.5;stroke-linecap:round;stroke-linejoin:round;stroke-miterlimit:4;stroke-opacity:1;stroke-dasharray:none" /></g><g
                       transform="matrix(1,0,0,-1,0,25)"
                       id="g152"><path
                         d="m 14.125,14.148 4.5,-4.5 -4.5,-4.5"
                         id="path154"
                         style="fill:none;stroke:#000000;stroke-width:1.95000005;stroke-linecap:round;stroke-linejoin:round;stroke-miterlimit:4;stroke-opacity:1;stroke-dasharray:none" /></g></g></g></g></g></g></g></g></g><g
       id="g156"><g
         clip-path="url(#clipPath160)"
         id="g158"><g
           clip-path="url(#clipPath166)"
           id="g164"><g
             transform="translate(149,723)"
             id="g170"><g
               id="g172" /><g
               id="g182"><g
                 clip-path="url(#clipPath174)"
                 id="g184"><g
                   id="g186" /><g
                   id="g188"><g
                     clip-path="url(#clipPath178)"
                     id="g190"><g
                       transform="matrix(1,0,0,-1,0,25)"
                       id="g192"><path
                         d="m 7.938,11.148 3,6 9,0"
                         id="path194"
                         style="fill:none;stroke:#000000;stroke-width:1.5;stroke-linecap:round;stroke-linejoin:round;stroke-miterlimit:4;stroke-opacity:1;stroke-dasharray:none" /></g><g
                       transform="matrix(1,0,0,-1,0,25)"
                       id="g196"><path
                         d="m 15.438,21.648 4.5,-4.5 -4.5,-4.5"
                         id="path198"
                         style="fill:none;stroke:#000000;stroke-width:1.95000005;stroke-linecap:round;stroke-linejoin:round;stroke-miterlimit:4;stroke-opacity:1;stroke-dasharray:none" /></g><g
                       transform="matrix(1,0,0,-1,0,25)"
                       id="g200"><path
                         d="m 3.438,5.148 c 18,0 18,0 18,0"
                         id="path202"
                         style="fill:none;stroke:#000000;stroke-width:0.60000002;stroke-linecap:butt;stroke-linejoin:miter;stroke-miterlimit:4;stroke-opacity:1;stroke-dasharray:none" /></g><g
                       transform="matrix(1,0,0,-1,0,25)"
                       id="g204"><path
                         d="m 3.438,14.148 c 18,0 18,0 18,0"
                         id="path206"
                         style="fill:none;stroke:#000000;stroke-width:0.60000002;stroke-linecap:butt;stroke-linejoin:miter;stroke-miterlimit:4;stroke-opacity:1;stroke-dasharray:none" /></g><g
                       transform="matrix(1,0,0,-1,0,25)"
                       id="g208"><path
                         d="m 3.438,9.648 c 18,0 18,0 18,0"
                         id="path210"
                         style="fill:none;stroke:#000000;stroke-width:0.60000002;stroke-linecap:butt;stroke-linejoin:miter;stroke-miterlimit:4;stroke-opacity:1;stroke-dasharray:none" /></g></g></g></g></g></g></g></g></g></g></svg>